# Blender v2.79 (sub 0) OBJ File: 'aucman_roof_trim_025m.blend'
# www.blender.org
mtllib aucman_roof_trim_025m.mtl
o c_c
v -25.000000 0.000000 0.000000
v -25.000000 -20.000000 70.000000
v -25.000000 20.000000 0.000000
v -25.000000 20.000000 70.000000
v 0.000000 -0.000001 0.000000
v 0.000000 -20.000002 70.000000
v 0.000000 19.999998 0.000000
v 0.000000 19.999998 70.000000
vn -1.0000 0.0000 0.0000
vn 0.0000 1.0000 0.0000
vn 1.0000 0.0000 0.0000
vn -0.0000 -0.9615 -0.2747
vn 0.0000 0.0000 -1.0000
vn -0.0000 0.0000 1.0000
usemtl None
s off
f 1//1 4//1 3//1
f 4//2 7//2 3//2
f 8//3 5//3 7//3
f 6//4 1//4 5//4
f 7//5 1//5 3//5
f 4//6 6//6 8//6
f 1//1 2//1 4//1
f 4//2 8//2 7//2
f 8//3 6//3 5//3
f 6//4 2//4 1//4
f 7//5 5//5 1//5
f 4//6 2//6 6//6
o g_g
v -0.000381 -20.000458 68.000504
v -0.000381 -18.000412 62.000465
v -0.000954 20.000076 0.000572
v -0.000381 -0.000381 0.000477
v -0.000381 -0.000381 38.000393
v -0.000381 19.999695 70.000549
v -0.000381 -16.000175 60.000515
v -0.000381 -2.000427 40.000343
v -0.000381 -2.000427 60.000515
v -0.000381 -0.000381 38.000393
v -0.000381 -2.000427 40.000343
v -0.000572 -20.000458 70.000366
v -0.000381 -2.000427 60.000515
v -0.000572 -20.000458 70.000366
v -0.000381 19.999695 70.000549
v -25.000381 -20.000458 68.000504
v -25.000381 19.999695 70.000549
v -25.000381 -2.000427 40.000343
v -25.000381 -18.000412 62.000465
v -25.000572 -20.000458 70.000366
v -25.000381 -0.000381 0.000477
v -25.000381 -2.000427 60.000515
v -25.000381 -0.000381 38.000393
v -25.000572 -20.000458 70.000366
v -25.000954 20.000076 0.000572
v -25.000381 -2.000427 60.000515
v -25.000381 19.999695 70.000549
v -25.000381 -0.000381 38.000393
v -25.000381 -16.000175 60.000515
v -25.000381 -2.000427 40.000343
vt 4.000000 0.359375
vt 3.750000 0.234375
vt 4.000000 0.234375
vt 4.000000 0.109375
vt 3.750000 0.000000
vt 4.000000 0.000000
vt 3.000000 0.429688
vt 2.812500 0.015625
vt 3.000000 0.015625
vt 2.000000 1.000000
vt 1.875000 0.000000
vt 2.000000 0.000000
vt 1.000000 0.000000
vt 0.937500 0.343750
vt 0.937500 0.000000
vt 1.000000 0.570312
vt 0.937500 0.335938
vt 1.000000 0.335938
vt 0.000000 0.000000
vt 0.062500 1.000000
vt -0.000000 1.000000
vt 4.000000 0.671875
vt 3.750000 0.609375
vt 4.000000 0.609375
vt 3.750000 0.359375
vt 3.750000 0.109375
vt 2.812500 0.429688
vt 1.875000 1.000000
vt 1.000000 0.343750
vt 0.937500 0.570312
vt 0.062500 0.000000
vt 3.750000 0.671875
vn 0.0000 -0.8506 -0.5258
vn 0.0000 -0.3827 -0.9239
vn 0.0000 -0.7071 -0.7071
vn 0.0000 0.0000 -1.0000
vn 0.0000 -1.0000 0.0000
vn 0.0000 -0.0000 1.0000
vn 0.0000 1.0000 0.0000
vn 0.0000 -0.9871 -0.1602
usemtl mtl_mortar_trims
s 1
f 10/1/7 37/2/8 15/3/8
f 19/4/9 31/5/9 18/6/9
f 15/7/8 30/8/10 21/9/10
f 13/10/11 29/11/11 12/12/11
f 22/13/12 35/14/12 28/15/12
f 17/16/11 26/17/11 16/18/11
f 11/19/13 25/20/13 14/21/13
f 20/22/11 24/23/14 9/24/14
f 24/23/14 10/1/7 9/24/14
f 10/1/7 27/25/7 37/2/8
f 19/4/9 38/26/9 31/5/9
f 15/7/8 37/27/8 30/8/10
f 13/10/11 36/28/11 29/11/11
f 22/13/12 23/29/12 35/14/12
f 17/16/11 34/30/11 26/17/11
f 11/19/13 33/31/13 25/20/13
f 20/22/11 32/32/11 24/23/14
f 24/23/14 27/25/7 10/1/7
o co_culling
v 0.000000 0.000000 0.000000
v 0.000000 0.000000 0.000000
v 0.000000 0.000000 0.000000
v 0.000000 0.000000 0.000000
v 0.000000 0.000000 0.000000
v 0.000000 0.000000 0.000000
v 0.000000 0.000000 0.000000
v 0.000000 0.000000 0.000000
vn 0.0000 0.0000 1.0000
usemtl None
s off
f 39//15 42//15 41//15
f 41//15 46//15 45//15
f 45//15 44//15 43//15
f 43//15 40//15 39//15
f 41//15 43//15 39//15
f 46//15 40//15 44//15
f 39//15 40//15 42//15
f 41//15 42//15 46//15
f 45//15 46//15 44//15
f 43//15 44//15 40//15
f 41//15 45//15 43//15
f 46//15 42//15 40//15
