# Blender v2.79 (sub 0) OBJ File: 'material_test.blend'
# www.blender.org
mtllib material_test.mtl
o g_g
v -200.000000 -200.000000 0.000000
v -100.000000 200.000000 0.000000
v 200.000000 200.000000 0.000000
v -200.000000 200.000000 400.000000
v 200.000000 200.000000 400.000000
v -200.000000 200.000000 0.000000
v 100.000000 200.000000 0.000000
v 100.000000 200.000000 209.999985
v -100.000000 200.000000 209.999985
v -200.000000 -200.000000 0.000000
v 200.000000 -200.000000 0.000000
v 200.000000 600.000000 0.000000
v -200.000000 600.000000 0.000000
v -200.000000 -200.000000 400.000000
v -200.000000 600.000000 400.000000
v -200.000000 600.000000 0.000000
v -100.000000 225.000000 0.000000
v 100.000000 225.000000 0.000000
v 100.000000 225.000000 209.999985
v -100.000000 225.000000 209.999985
v -200.000000 -200.000000 400.000000
v 200.000000 -200.000000 400.000000
v 200.000000 600.000000 400.000000
v -200.000000 600.000000 400.000000
v 100.000000 200.000000 0.000000
v 100.000000 200.000000 209.999985
v 100.000000 200.000000 209.999985
v -100.000000 200.000000 209.999985
v -100.000000 200.000000 209.999985
v -100.000000 200.000000 0.000000
v -200.000000 600.000000 0.000000
v -200.000000 -200.000000 0.000000
v 200.000000 600.000000 0.000000
v 200.000000 -200.000000 0.000000
v 100.000000 225.000000 209.999985
v -100.000000 225.000000 209.999985
v 200.000000 600.000000 400.000000
v -200.000000 600.000000 400.000000
v -200.000000 -200.000000 400.000000
v 200.000000 -200.000000 400.000000
v 200.000000 225.000000 0.000000
v -200.000000 225.000000 400.000000
v 200.000000 225.000000 400.000000
v -200.000000 225.000000 0.000000
v 100.000000 225.000000 0.000000
v 100.000000 225.000000 209.999985
v -100.000000 225.000000 209.999985
v -100.000000 225.000000 0.000000
v 100.000000 200.000000 209.999985
v 200.000000 200.000000 400.000000
v -200.000000 200.000000 400.000000
v -100.000000 200.000000 209.999985
v 200.000000 600.000000 400.000000
v 200.000000 -200.000000 400.000000
v 200.000000 -200.000000 0.000000
v 200.000000 600.000000 0.000000
v 100.000000 225.000000 209.999985
v 200.000000 225.000000 400.000000
v -200.000000 225.000000 400.000000
v -100.000000 225.000000 209.999985
vt 4.500000 0.500000
vt 0.500000 2.500000
vt 0.500000 0.500000
vt 0.000000 0.550000
vt 0.500000 -0.500000
vt 0.500000 1.500000
vt 1.000000 0.550000
vt -0.500000 1.500000
vt 0.000000 0.550000
vt 0.000000 1.550000
vt -0.500000 0.500000
vt 0.000000 0.500000
vt 2.500000 0.500000
vt 0.500000 4.500000
vt 0.500000 0.500000
vt 0.500000 -0.500000
vt 0.625000 0.550000
vt 0.500000 0.550000
vt -1.000000 0.500000
vt 0.000000 0.625000
vt 0.000000 0.500000
vt 0.500000 1.550000
vt 0.625000 0.500000
vt 0.500000 0.500000
vt -1.500000 0.500000
vt 0.500000 2.500000
vt 0.500000 0.500000
vt 2.500000 0.500000
vt 0.500000 2.500000
vt 0.500000 0.500000
vt 0.500000 -3.500000
vt -1.500000 0.500000
vt 0.500000 0.500000
vt 0.000000 0.550000
vt 0.500000 -0.500000
vt 0.000000 -0.500000
vt -0.500000 1.500000
vt 1.000000 0.550000
vt 0.000000 0.550000
vt -0.500000 0.500000
vt 0.000000 1.550000
vt 0.000000 0.500000
vt 4.500000 0.500000
vt 0.500000 -1.500000
vt 0.500000 0.500000
vt 4.500000 2.500000
vt 0.000000 -0.500000
vt 1.500000 1.500000
vt -0.500000 2.500000
vt 2.500000 4.500000
vt 0.625000 -0.500000
vt -1.000000 0.625000
vt 0.625000 1.550000
vt -1.500000 2.500000
vt 2.500000 2.500000
vt -1.500000 -3.500000
vt 0.500000 1.500000
vt 1.500000 1.500000
vt -0.500000 2.500000
vt 4.500000 -1.500000
vn 1.0000 0.0000 0.0000
vn 0.0000 -1.0000 0.0000
vn 0.0000 0.0000 1.0000
vn 0.0000 0.0000 -1.0000
vn -1.0000 0.0000 0.0000
vn 0.0000 1.0000 0.0000
usemtl mtl
s off
f 16/1/1 14/2/1 1/3/1
f 49/4/2 3/5/2 5/6/2
f 26/7/2 51/8/2 52/9/2
f 28/10/2 6/11/2 30/12/2
f 34/13/3 31/14/3 32/15/3
f 2/16/1 20/17/1 29/18/1
f 9/19/4 19/20/4 27/21/4
f 8/22/5 18/23/5 7/24/5
f 10/25/6 54/26/6 55/27/6
f 56/28/2 38/29/2 13/30/2
f 22/31/4 24/32/4 23/33/4
f 57/34/6 41/35/6 45/36/6
f 59/37/6 46/38/6 60/39/6
f 44/40/6 47/41/6 48/42/6
f 37/43/5 11/44/5 40/45/5
f 16/1/1 15/46/1 14/2/1
f 49/4/2 25/47/2 3/5/2
f 26/7/2 50/48/2 51/8/2
f 28/10/2 4/49/2 6/11/2
f 34/13/3 33/50/3 31/14/3
f 2/16/1 17/51/1 20/17/1
f 9/19/4 36/52/4 19/20/4
f 8/22/5 35/53/5 18/23/5
f 10/25/6 39/54/6 54/26/6
f 56/28/2 53/55/2 38/29/2
f 22/31/4 21/56/4 24/32/4
f 57/34/6 43/57/6 41/35/6
f 59/37/6 58/58/6 46/38/6
f 44/40/6 42/59/6 47/41/6
f 37/43/5 12/60/5 11/44/5
o co_culling
v 0.000000 0.000000 0.000000
v 0.000000 0.000000 0.000000
v 0.000000 0.000000 0.000000
v 0.000000 0.000000 0.000000
v 0.000000 0.000000 0.000000
v 0.000000 0.000000 0.000000
v 0.000000 0.000000 0.000000
v 0.000000 0.000000 0.000000
vn 0.0000 0.0000 1.0000
usemtl None
s off
f 61//7 64//7 63//7
f 63//7 68//7 67//7
f 67//7 66//7 65//7
f 65//7 62//7 61//7
f 63//7 65//7 61//7
f 68//7 62//7 66//7
f 61//7 62//7 64//7
f 63//7 64//7 68//7
f 67//7 68//7 66//7
f 65//7 66//7 62//7
f 63//7 67//7 65//7
f 68//7 64//7 62//7
