# Blender v2.79 (sub 0) OBJ File: 'aucman_auction_tag.blend'
# www.blender.org
mtllib aucman_auction_tag.mtl
o g_tag_blue_code0
v -8.749998 -5.000002 1.000000
v -8.749998 2.499999 1.000000
v 5.000001 -5.000002 1.000000
v 4.999998 2.499999 1.000000
vt 0.625000 0.812500
vt 0.281250 0.625000
vt 0.625000 0.625000
vt 0.281250 0.812500
vn 0.0000 0.0000 1.0000
usemtl mtl_tag_blue
s off
f 4/1/1 1/2/1 3/3/1
f 4/1/1 2/4/1 1/2/1
o g_tag_green_code0
v -8.749998 -5.000002 1.000000
v -8.749998 2.499999 1.000000
v 5.000001 -5.000002 1.000000
v 4.999998 2.499999 1.000000
vt 0.625000 0.812500
vt 0.281250 0.625000
vt 0.625000 0.625000
vt 0.281250 0.812500
vn 0.0000 0.0000 1.0000
usemtl mtl_tag_green
s off
f 8/5/2 5/6/2 7/7/2
f 8/5/2 6/8/2 5/6/2
o g_tag_red_code0
v -8.749998 -5.000002 1.000000
v -8.749998 2.499999 1.000000
v 5.000001 -5.000002 1.000000
v 4.999998 2.499999 1.000000
vt 0.625000 0.812500
vt 0.281250 0.625000
vt 0.625000 0.625000
vt 0.281250 0.812500
vn 0.0000 0.0000 1.0000
usemtl mtl_tag_red
s off
f 12/9/3 9/10/3 11/11/3
f 12/9/3 10/12/3 9/10/3
o g_tag_white_code0
v -8.749998 -5.000002 1.000000
v -8.749998 2.499999 1.000000
v 5.000001 -5.000002 1.000000
v 4.999998 2.499999 1.000000
vt 0.625000 0.812500
vt 0.281250 0.625000
vt 0.625000 0.625000
vt 0.281250 0.812500
vn 0.0000 0.0000 1.0000
usemtl mtl_tag_white
s off
f 16/13/4 13/14/4 15/15/4
f 16/13/4 14/16/4 13/14/4
o c_c
v -20.000002 -10.000002 -2.000002
v -20.000002 -10.000002 2.000003
v -20.000002 10.000002 -2.000002
v -20.000002 10.000002 2.000003
v 20.000002 -10.000002 -2.000002
v 20.000002 -10.000002 2.000003
v 20.000002 10.000002 -2.000002
v 20.000002 10.000002 2.000003
vn -1.0000 0.0000 0.0000
vn 0.0000 1.0000 0.0000
vn 1.0000 0.0000 0.0000
vn 0.0000 -1.0000 0.0000
vn 0.0000 0.0000 -1.0000
vn 0.0000 0.0000 1.0000
usemtl None
s off
f 18//5 19//5 17//5
f 20//6 23//6 19//6
f 24//7 21//7 23//7
f 22//8 17//8 21//8
f 23//9 17//9 19//9
f 20//10 22//10 24//10
f 18//5 20//5 19//5
f 20//6 24//6 23//6
f 24//7 22//7 21//7
f 22//8 18//8 17//8
f 23//9 21//9 17//9
f 20//10 18//10 22//10
o g_tag_white
v -19.999998 -9.999999 1.000000
v 19.361855 -9.776471 0.610761
v 18.653076 10.213096 0.837817
v 5.000002 -5.000001 1.000000
v 4.999997 2.499998 1.000000
v -8.749997 2.499999 1.000000
v -8.749997 -5.000001 1.000000
v 12.597826 -9.999999 1.000000
v 10.468526 9.999999 1.000000
v 14.403829 -10.024767 1.270305
v 14.208719 9.990523 1.270305
v -14.912608 9.999999 1.000000
v -19.999998 -9.999999 1.000000
v -19.999998 9.999999 1.436036
v 12.597826 -9.999999 1.000000
v 10.468525 9.999999 1.000000
v 14.403828 -10.024767 1.270305
v 14.208717 9.990523 1.270305
v -14.912608 9.999999 1.000000
vt 0.815430 0.500000
vt 0.281250 0.625000
vt 0.000000 0.500000
vt 0.625000 0.812500
vt 0.761719 1.000000
vt 0.281250 0.812500
vt 0.881836 1.000000
vt 1.000000 0.500000
vt 1.000000 1.000000
vt 0.815430 0.500000
vt 0.881836 1.000000
vt 0.761719 1.000000
vt 0.000000 0.500000
vt 0.126953 1.000000
vt 0.000000 1.000000
vt 0.625000 0.625000
vt 0.126953 1.000000
vt 0.861328 0.500000
vt 0.861328 0.500000
vn 0.0000 0.0000 1.0000
vn 0.1025 -0.0064 0.9947
vn 0.1270 0.0000 0.9919
vn 0.0972 -0.0078 0.9952
vn -0.1397 -0.0021 0.9902
vn -0.0765 -0.0073 0.9970
vn -0.0721 -0.0077 0.9973
vn 0.0854 -0.0217 0.9961
vn 0.1318 0.0013 0.9913
vn -0.1480 -0.0014 0.9890
usemtl mtl_tag_white
s 1
f 32/17/11 31/18/11 25/19/11
f 29/20/11 33/21/11 30/22/11
f 35/23/12 26/24/13 27/25/14
f 39/26/15 42/27/16 40/28/17
f 37/29/18 43/30/18 38/31/18
f 32/17/11 28/32/11 31/18/11
f 29/20/11 28/32/11 32/17/11
f 36/33/11 25/19/11 30/22/11
f 25/19/11 31/18/11 30/22/11
f 29/20/11 32/17/11 33/21/11
f 36/33/11 30/22/11 33/21/11
f 35/23/12 34/34/19 26/24/13
f 39/26/15 41/35/20 42/27/16
o g_tag_white_code1
v -8.749998 -5.000002 1.000000
v -8.749998 2.499999 1.000000
v 5.000001 -5.000002 1.000000
v 4.999998 2.499999 1.000000
vt 0.375000 0.468750
vt 0.031250 0.281250
vt 0.375000 0.281250
vt 0.031250 0.468750
vn 0.0000 0.0000 1.0000
usemtl mtl_tag_white
s off
f 47/36/21 44/37/21 46/38/21
f 47/36/21 45/39/21 44/37/21
o g_tag_white_code2
v -8.749998 -5.000002 1.000000
v -8.749998 2.499999 1.000000
v 5.000001 -5.000002 1.000000
v 4.999998 2.499999 1.000000
vt 0.750000 0.468750
vt 0.406250 0.281250
vt 0.750000 0.281250
vt 0.406250 0.468750
vn 0.0000 0.0000 1.0000
usemtl mtl_tag_white
s off
f 51/40/22 48/41/22 50/42/22
f 51/40/22 49/43/22 48/41/22
o g_tag_white_code3
v -8.749998 -5.000002 1.000000
v -8.749998 2.499999 1.000000
v 5.000001 -5.000002 1.000000
v 4.999998 2.499999 1.000000
vt 0.375000 0.250000
vt 0.031250 0.062500
vt 0.375000 0.062500
vt 0.031250 0.250000
vn 0.0000 0.0000 1.0000
usemtl mtl_tag_white
s off
f 55/44/23 52/45/23 54/46/23
f 55/44/23 53/47/23 52/45/23
o g_tag_white_code4
v -8.749998 -5.000002 1.000000
v -8.749998 2.499999 1.000000
v 5.000001 -5.000002 1.000000
v 4.999998 2.499999 1.000000
vt 0.750000 0.250000
vt 0.406250 0.062500
vt 0.750000 0.062500
vt 0.406250 0.250000
vn 0.0000 0.0000 1.0000
usemtl mtl_tag_white
s off
f 59/48/24 56/49/24 58/50/24
f 59/48/24 57/51/24 56/49/24
o g_tag_red_code4
v -8.749998 -5.000002 1.000000
v -8.749998 2.499999 1.000000
v 5.000001 -5.000002 1.000000
v 4.999998 2.499999 1.000000
vt 0.750000 0.250000
vt 0.406250 0.062500
vt 0.750000 0.062500
vt 0.406250 0.250000
vn 0.0000 0.0000 1.0000
usemtl mtl_tag_red
s off
f 63/52/25 60/53/25 62/54/25
f 63/52/25 61/55/25 60/53/25
o g_tag_red_code3
v -8.749998 -5.000002 1.000000
v -8.749998 2.499999 1.000000
v 5.000001 -5.000002 1.000000
v 4.999998 2.499999 1.000000
vt 0.375000 0.250000
vt 0.031250 0.062500
vt 0.375000 0.062500
vt 0.031250 0.250000
vn 0.0000 0.0000 1.0000
usemtl mtl_tag_red
s off
f 67/56/26 64/57/26 66/58/26
f 67/56/26 65/59/26 64/57/26
o g_tag_red_code2
v -8.749998 -5.000002 1.000000
v -8.749998 2.499999 1.000000
v 5.000001 -5.000002 1.000000
v 4.999998 2.499999 1.000000
vt 0.750000 0.468750
vt 0.406250 0.281250
vt 0.750000 0.281250
vt 0.406250 0.468750
vn 0.0000 0.0000 1.0000
usemtl mtl_tag_red
s off
f 71/60/27 68/61/27 70/62/27
f 71/60/27 69/63/27 68/61/27
o g_tag_red_code1
v -8.749998 -5.000002 1.000000
v -8.749998 2.499999 1.000000
v 5.000001 -5.000002 1.000000
v 4.999998 2.499999 1.000000
vt 0.375000 0.468750
vt 0.031250 0.281250
vt 0.375000 0.281250
vt 0.031250 0.468750
vn 0.0000 0.0000 1.0000
usemtl mtl_tag_red
s off
f 75/64/28 72/65/28 74/66/28
f 75/64/28 73/67/28 72/65/28
o g_tag_green
v -19.999998 -9.999999 1.000000
v 19.361855 -9.776471 0.610761
v 18.653076 10.213096 0.837817
v 5.000002 -5.000001 1.000000
v 4.999997 2.499998 1.000000
v -8.749997 2.499999 1.000000
v -8.749997 -5.000001 1.000000
v 12.597826 -9.999999 1.000000
v 10.468526 9.999999 1.000000
v 14.403829 -10.024767 1.270305
v 14.208719 9.990523 1.270305
v -14.912608 9.999999 1.000000
v -19.999998 -9.999999 1.000000
v -19.999998 9.999999 1.436036
v 12.597826 -9.999999 1.000000
v 10.468525 9.999999 1.000000
v 14.403828 -10.024767 1.270305
v 14.208717 9.990523 1.270305
v -14.912608 9.999999 1.000000
vt 0.815430 0.500000
vt 0.281250 0.625000
vt 0.000000 0.500000
vt 0.625000 0.812500
vt 0.761719 1.000000
vt 0.281250 0.812500
vt 0.881836 1.000000
vt 1.000000 0.500000
vt 1.000000 1.000000
vt 0.815430 0.500000
vt 0.881836 1.000000
vt 0.761719 1.000000
vt 0.000000 0.500000
vt 0.126953 1.000000
vt 0.000000 1.000000
vt 0.625000 0.625000
vt 0.126953 1.000000
vt 0.861328 0.500000
vt 0.861328 0.500000
vn 0.0000 0.0000 1.0000
vn 0.1025 -0.0064 0.9947
vn 0.1270 0.0000 0.9919
vn 0.0972 -0.0078 0.9952
vn -0.1397 -0.0021 0.9902
vn -0.0765 -0.0073 0.9970
vn -0.0721 -0.0077 0.9973
vn 0.0854 -0.0217 0.9961
vn 0.1318 0.0013 0.9913
vn -0.1480 -0.0014 0.9890
usemtl mtl_tag_green
s 1
f 83/68/29 82/69/29 76/70/29
f 80/71/29 84/72/29 81/73/29
f 86/74/30 77/75/31 78/76/32
f 90/77/33 93/78/34 91/79/35
f 88/80/36 94/81/36 89/82/36
f 83/68/29 79/83/29 82/69/29
f 80/71/29 79/83/29 83/68/29
f 87/84/29 76/70/29 81/73/29
f 76/70/29 82/69/29 81/73/29
f 80/71/29 83/68/29 84/72/29
f 87/84/29 81/73/29 84/72/29
f 86/74/30 85/85/37 77/75/31
f 90/77/33 92/86/38 93/78/34
o g_tag_red
v -19.999998 -9.999999 1.000000
v 19.361855 -9.776471 0.610761
v 18.653076 10.213096 0.837817
v 5.000002 -5.000001 1.000000
v 4.999997 2.499998 1.000000
v -8.749997 2.499999 1.000000
v -8.749997 -5.000001 1.000000
v 12.597826 -9.999999 1.000000
v 10.468526 9.999999 1.000000
v 14.403829 -10.024767 1.270305
v 14.208719 9.990523 1.270305
v -14.912608 9.999999 1.000000
v -19.999998 -9.999999 1.000000
v -19.999998 9.999999 1.436036
v 12.597826 -9.999999 1.000000
v 10.468525 9.999999 1.000000
v 14.403828 -10.024767 1.270305
v 14.208717 9.990523 1.270305
v -14.912608 9.999999 1.000000
vt 0.815430 0.500000
vt 0.281250 0.625000
vt 0.000000 0.500000
vt 0.625000 0.812500
vt 0.761719 1.000000
vt 0.281250 0.812500
vt 0.881836 1.000000
vt 1.000000 0.500000
vt 1.000000 1.000000
vt 0.815430 0.500000
vt 0.881836 1.000000
vt 0.761719 1.000000
vt 0.000000 0.500000
vt 0.126953 1.000000
vt 0.000000 1.000000
vt 0.625000 0.625000
vt 0.126953 1.000000
vt 0.861328 0.500000
vt 0.861328 0.500000
vn 0.0000 0.0000 1.0000
vn 0.1025 -0.0064 0.9947
vn 0.1270 0.0000 0.9919
vn 0.0972 -0.0078 0.9952
vn -0.1397 -0.0021 0.9902
vn -0.0765 -0.0073 0.9970
vn -0.0721 -0.0077 0.9973
vn 0.0854 -0.0217 0.9961
vn 0.1318 0.0013 0.9913
vn -0.1480 -0.0014 0.9890
usemtl mtl_tag_red
s 1
f 102/87/39 101/88/39 95/89/39
f 99/90/39 103/91/39 100/92/39
f 105/93/40 96/94/41 97/95/42
f 109/96/43 112/97/44 110/98/45
f 107/99/46 113/100/46 108/101/46
f 102/87/39 98/102/39 101/88/39
f 99/90/39 98/102/39 102/87/39
f 106/103/39 95/89/39 100/92/39
f 95/89/39 101/88/39 100/92/39
f 99/90/39 102/87/39 103/91/39
f 106/103/39 100/92/39 103/91/39
f 105/93/40 104/104/47 96/94/41
f 109/96/43 111/105/48 112/97/44
o g_tag_green_code1
v -8.749998 -5.000002 1.000000
v -8.749998 2.499999 1.000000
v 5.000001 -5.000002 1.000000
v 4.999998 2.499999 1.000000
vt 0.375000 0.468750
vt 0.031250 0.281250
vt 0.375000 0.281250
vt 0.031250 0.468750
vn 0.0000 0.0000 1.0000
usemtl mtl_tag_green
s off
f 117/106/49 114/107/49 116/108/49
f 117/106/49 115/109/49 114/107/49
o g_tag_green_code2
v -8.749998 -5.000002 1.000000
v -8.749998 2.499999 1.000000
v 5.000001 -5.000002 1.000000
v 4.999998 2.499999 1.000000
vt 0.750000 0.468750
vt 0.406250 0.281250
vt 0.750000 0.281250
vt 0.406250 0.468750
vn 0.0000 0.0000 1.0000
usemtl mtl_tag_green
s off
f 121/110/50 118/111/50 120/112/50
f 121/110/50 119/113/50 118/111/50
o g_tag_green_code3
v -8.749998 -5.000002 1.000000
v -8.749998 2.499999 1.000000
v 5.000001 -5.000002 1.000000
v 4.999998 2.499999 1.000000
vt 0.375000 0.250000
vt 0.031250 0.062500
vt 0.375000 0.062500
vt 0.031250 0.250000
vn 0.0000 0.0000 1.0000
usemtl mtl_tag_green
s off
f 125/114/51 122/115/51 124/116/51
f 125/114/51 123/117/51 122/115/51
o g_tag_green_code4
v -8.749998 -5.000002 1.000000
v -8.749998 2.499999 1.000000
v 5.000001 -5.000002 1.000000
v 4.999998 2.499999 1.000000
vt 0.750000 0.250000
vt 0.406250 0.062500
vt 0.750000 0.062500
vt 0.406250 0.250000
vn 0.0000 0.0000 1.0000
usemtl mtl_tag_green
s off
f 129/118/52 126/119/52 128/120/52
f 129/118/52 127/121/52 126/119/52
o g_tag_blue_code4
v -8.749998 -5.000002 1.000000
v -8.749998 2.499999 1.000000
v 5.000001 -5.000002 1.000000
v 4.999998 2.499999 1.000000
vt 0.750000 0.250000
vt 0.406250 0.062500
vt 0.750000 0.062500
vt 0.406250 0.250000
vn 0.0000 0.0000 1.0000
usemtl mtl_tag_blue
s off
f 133/122/53 130/123/53 132/124/53
f 133/122/53 131/125/53 130/123/53
o g_tag_blue_code3
v -8.749998 -5.000002 1.000000
v -8.749998 2.499999 1.000000
v 5.000001 -5.000002 1.000000
v 4.999998 2.499999 1.000000
vt 0.375000 0.250000
vt 0.031250 0.062500
vt 0.375000 0.062500
vt 0.031250 0.250000
vn 0.0000 0.0000 1.0000
usemtl mtl_tag_blue
s off
f 137/126/54 134/127/54 136/128/54
f 137/126/54 135/129/54 134/127/54
o g_tag_blue_code2
v -8.749998 -5.000002 1.000000
v -8.749998 2.499999 1.000000
v 5.000001 -5.000002 1.000000
v 4.999998 2.499999 1.000000
vt 0.750000 0.468750
vt 0.406250 0.281250
vt 0.750000 0.281250
vt 0.406250 0.468750
vn 0.0000 0.0000 1.0000
usemtl mtl_tag_blue
s off
f 141/130/55 138/131/55 140/132/55
f 141/130/55 139/133/55 138/131/55
o g_tag_blue_code1
v -8.749998 -5.000002 1.000000
v -8.749998 2.499999 1.000000
v 5.000001 -5.000002 1.000000
v 4.999998 2.499999 1.000000
vt 0.375000 0.468750
vt 0.031250 0.281250
vt 0.375000 0.281250
vt 0.031250 0.468750
vn 0.0000 0.0000 1.0000
usemtl mtl_tag_blue
s off
f 145/134/56 142/135/56 144/136/56
f 145/134/56 143/137/56 142/135/56
o g_tag_blue
v -19.999998 -9.999999 1.000000
v 19.361855 -9.776471 0.610761
v 18.653076 10.213096 0.837817
v 5.000002 -5.000001 1.000000
v 4.999997 2.499998 1.000000
v -8.749997 2.499999 1.000000
v -8.749997 -5.000001 1.000000
v 12.597826 -9.999999 1.000000
v 10.468526 9.999999 1.000000
v 14.403829 -10.024767 1.270305
v 14.208719 9.990523 1.270305
v -14.912608 9.999999 1.000000
v -19.999998 -9.999999 1.000000
v -19.999998 9.999999 1.436036
v 12.597826 -9.999999 1.000000
v 10.468525 9.999999 1.000000
v 14.403828 -10.024767 1.270305
v 14.208717 9.990523 1.270305
v -14.912608 9.999999 1.000000
vt 0.815430 0.500000
vt 0.281250 0.625000
vt 0.000000 0.500000
vt 0.625000 0.812500
vt 0.761719 1.000000
vt 0.281250 0.812500
vt 0.881836 1.000000
vt 1.000000 0.500000
vt 1.000000 1.000000
vt 0.815430 0.500000
vt 0.881836 1.000000
vt 0.761719 1.000000
vt 0.000000 0.500000
vt 0.126953 1.000000
vt 0.000000 1.000000
vt 0.625000 0.625000
vt 0.126953 1.000000
vt 0.861328 0.500000
vt 0.861328 0.500000
vn 0.0000 0.0000 1.0000
vn 0.1025 -0.0064 0.9947
vn 0.1270 0.0000 0.9919
vn 0.0972 -0.0078 0.9952
vn -0.1397 -0.0021 0.9902
vn -0.0765 -0.0073 0.9970
vn -0.0721 -0.0077 0.9973
vn 0.0854 -0.0217 0.9961
vn 0.1318 0.0013 0.9913
vn -0.1480 -0.0014 0.9890
usemtl mtl_tag_blue
s 1
f 153/138/57 152/139/57 146/140/57
f 150/141/57 154/142/57 151/143/57
f 156/144/58 147/145/59 148/146/60
f 160/147/61 163/148/62 161/149/63
f 158/150/64 164/151/64 159/152/64
f 153/138/57 149/153/57 152/139/57
f 150/141/57 149/153/57 153/138/57
f 157/154/57 146/140/57 151/143/57
f 146/140/57 152/139/57 151/143/57
f 150/141/57 153/138/57 154/142/57
f 157/154/57 151/143/57 154/142/57
f 156/144/58 155/155/65 147/145/59
f 160/147/61 162/156/66 163/148/62
o co_culling
v 0.000000 0.000000 0.000000
v 0.000000 0.000000 0.000000
v 0.000000 0.000000 0.000000
v 0.000000 0.000000 0.000000
v 0.000000 0.000000 0.000000
v 0.000000 0.000000 0.000000
v 0.000000 0.000000 0.000000
v 0.000000 0.000000 0.000000
vn 0.0000 0.0000 1.0000
usemtl None
s off
f 165//67 168//67 167//67
f 167//67 172//67 171//67
f 171//67 170//67 169//67
f 169//67 166//67 165//67
f 167//67 169//67 165//67
f 172//67 166//67 170//67
f 165//67 166//67 168//67
f 167//67 168//67 172//67
f 171//67 172//67 170//67
f 169//67 170//67 166//67
f 167//67 171//67 169//67
f 172//67 168//67 166//67
