# Blender v2.79 (sub 0) OBJ File: 'aucman_roof_trim_corner3.blend'
# www.blender.org
mtllib aucman_roof_trim_corner3.mtl
o c_c
v -20.000000 0.000001 70.000000
v 0.000000 -20.000002 70.000000
v 0.000000 0.000000 0.000000
v 0.000000 0.000000 70.000000
v 0.000000 -0.005000 0.000000
v -19.000000 -7.466501 70.000000
v -7.140205 -19.000002 70.000000
vn -1.0000 0.0000 0.0000
vn 1.0000 0.0000 0.0000
vn 0.0000 0.0000 1.0000
vn -0.9537 -0.1277 -0.2725
vn -0.6738 -0.6929 -0.2567
vn -0.1335 -0.9529 -0.2722
vn 0.0000 1.0000 -0.0001
usemtl None
s off
f 5//1 4//1 3//1
f 4//2 5//2 3//2
f 6//3 7//3 4//3
f 5//4 6//4 1//4
f 5//5 7//5 6//5
f 5//6 2//6 7//6
f 5//7 1//7 4//7
f 4//2 2//2 5//2
f 2//3 4//3 7//3
f 1//3 6//3 4//3
o g_g
v -0.000381 -20.000458 68.000504
v -0.000381 -2.000427 40.000343
v -0.000381 -18.000412 62.000465
v -0.000571 -20.000458 70.000366
v -0.000381 -2.000427 60.000515
v -0.000381 -0.000381 38.000393
v -0.000381 -16.000175 60.000515
v -7.654196 -18.477867 68.000504
v -6.888811 -16.630066 62.000465
v -7.654373 -18.477795 70.000366
v -0.765882 -1.848008 60.000515
v -6.123354 -14.782087 60.000515
v -14.142728 -14.142188 68.000504
v -12.728482 -12.727942 62.000465
v -14.142865 -14.142055 70.000366
v -1.414785 -1.414246 60.000515
v -11.314101 -11.313562 60.000515
v -18.478159 -7.653490 68.000504
v -16.630358 -6.888105 62.000465
v -18.478233 -7.653314 70.000366
v -1.848300 -0.765179 60.000515
v -14.782379 -6.122649 60.000515
v -20.000454 0.000384 68.000504
v -18.000408 0.000384 62.000465
v -20.000458 0.000575 70.000366
v -2.000427 0.000381 60.000515
v -16.000174 0.000383 60.000515
v -0.765882 -1.848008 40.000343
v -1.414785 -1.414246 40.000343
v -1.848300 -0.765179 40.000343
v -2.000427 0.000381 40.000343
v -0.000381 -20.000458 68.000504
v -0.000381 -18.000412 62.000465
v -7.654196 -18.477867 68.000504
v -6.888811 -16.630066 62.000465
v -14.142728 -14.142188 68.000504
v -12.728482 -12.727942 62.000465
v -18.478159 -7.653490 68.000504
v -16.630358 -6.888105 62.000465
v -20.000454 0.000384 68.000504
v -18.000408 0.000384 62.000465
v -0.000476 -0.000381 70.000458
v -0.000571 -20.000458 70.000366
v -7.654373 -18.477795 70.000366
v -14.142865 -14.142055 70.000366
v -18.478233 -7.653314 70.000366
v -20.000458 0.000575 70.000366
vt 0.921869 0.671904
vt 0.860898 0.609427
vt 0.921869 0.609404
vt 0.926059 0.015625
vt 0.898650 0.429687
vt 0.898650 0.015625
vt 3.750000 0.234375
vt 3.750000 0.359375
vt 3.750000 0.234375
vt 0.860898 0.671927
vt 0.799926 0.609450
vt 0.871241 0.429687
vt 0.871241 0.015625
vt 3.750000 0.359375
vt 3.750000 0.234375
vt 0.799926 0.671950
vt 0.738955 0.609473
vt 0.843832 0.429687
vt 0.843832 0.015625
vt 3.750000 0.359375
vt 3.750000 0.234375
vt 3.750000 0.359375
vt 3.750000 0.234375
vt 0.738955 0.671973
vt 0.677983 0.609496
vt 0.816423 0.429687
vt 0.816423 0.015625
vt 0.937500 0.570312
vt 0.935213 0.335938
vt 0.937500 0.335938
vt 0.903325 0.000000
vt 0.903325 0.109375
vt 0.895852 0.105207
vt 0.935213 0.570312
vt 0.932926 0.335938
vt 0.888947 0.093029
vt 0.932927 0.570313
vt 0.930640 0.335938
vt 0.883138 0.073768
vt 0.930640 0.570313
vt 0.928353 0.335938
vt 0.878865 0.048890
vt 0.901180 0.359375
vt 0.827918 0.609375
vt 0.827918 0.359375
vt 0.754657 0.609375
vt 0.754657 0.359375
vt 0.681395 0.609375
vt 0.681395 0.359375
vt 0.608134 0.609375
vt 0.608134 0.359375
vt 0.978516 -0.000000
vt 0.978516 0.171875
vt 0.962072 0.013085
vt 0.948132 0.050344
vt 0.938818 0.106107
vt 0.935547 0.171882
vt 0.926059 0.429687
vt 3.750000 0.359375
vt 0.677983 0.671996
vt 0.928353 0.570313
vt 0.901180 0.609375
vn -0.1951 -0.9808 -0.0000
vn -0.3827 -0.9239 -0.0000
vn -0.1297 -0.6515 -0.7474
vn -0.1615 -0.3898 -0.9066
vn -0.2516 -0.6071 -0.7538
vn -0.0836 -0.4205 -0.9034
vn -0.2706 -0.6532 -0.7072
vn -0.7071 -0.7071 -0.0000
vn -0.2984 -0.2984 -0.9066
vn -0.4648 -0.4646 -0.7538
vn -0.5000 -0.5000 -0.7072
vn -0.9239 -0.3827 -0.0000
vn -0.3898 -0.1615 -0.9066
vn -0.6072 -0.2514 -0.7538
vn -0.6532 -0.2706 -0.7072
vn -0.7002 -0.1393 -0.7003
vn -0.4205 -0.0836 -0.9034
vn -0.9239 -0.3826 0.0000
vn -0.9808 -0.1951 0.0000
vn -0.6517 -0.1295 -0.7474
vn -0.3562 -0.8594 -0.3668
vn -0.1821 -0.9147 -0.3607
vn -0.4799 -0.4798 -0.7345
vn -0.6579 -0.6577 -0.3668
vn -0.8595 -0.3558 -0.3668
vn -0.9148 -0.1818 -0.3607
vn -0.1855 -0.9322 -0.3107
vn -0.3631 -0.8765 -0.3162
vn -0.6708 -0.6708 -0.3162
vn -0.8765 -0.3630 -0.3162
vn -0.9322 -0.1854 -0.3107
vn 0.0000 -0.0000 1.0000
vn -0.1393 -0.7002 -0.7003
vn -0.1854 -0.9322 -0.3107
usemtl mtl_mortar_trims
s 1
f 11/1/8 15/2/9 8/3/8
f 12/4/10 19/5/11 18/6/12
f 14/7/13 16/8/14 19/9/11
f 17/10/9 20/11/15 15/2/9
f 18/6/12 24/12/16 23/13/17
f 19/9/11 21/14/18 24/15/16
f 22/16/15 25/17/19 20/11/15
f 23/13/17 29/18/20 28/19/21
f 24/15/16 26/20/22 29/21/20
f 29/21/20 31/22/23 34/23/24
f 27/24/25 30/25/26 25/17/19
f 28/19/21 34/26/24 33/27/27
f 12/28/10 35/29/28 9/30/29
f 13/31/30 9/32/29 35/33/28
f 18/34/12 36/35/31 35/29/28
f 13/31/30 35/33/28 36/36/31
f 23/37/17 37/38/32 36/35/31
f 13/31/30 36/36/31 37/39/32
f 28/40/21 38/41/33 37/38/32
f 13/31/30 37/39/32 38/42/33
f 40/43/34 41/44/35 42/45/35
f 42/45/35 43/46/36 44/47/36
f 44/47/36 45/48/37 46/49/37
f 46/49/37 47/50/38 48/51/38
f 50/52/39 49/53/39 51/54/39
f 51/54/39 49/53/39 52/55/39
f 52/55/39 49/53/39 53/56/39
f 53/56/39 49/53/39 54/57/39
f 11/1/8 17/10/9 15/2/9
f 12/4/10 14/58/13 19/5/11
f 14/7/13 10/59/40 16/8/14
f 17/10/9 22/16/15 20/11/15
f 18/6/12 19/5/11 24/12/16
f 19/9/11 16/8/14 21/14/18
f 22/16/15 27/24/25 25/17/19
f 23/13/17 24/12/16 29/18/20
f 24/15/16 21/14/18 26/20/22
f 29/21/20 26/20/22 31/22/23
f 27/24/25 32/60/26 30/25/26
f 28/19/21 29/18/20 34/26/24
f 12/28/10 18/34/12 35/29/28
f 18/34/12 23/37/17 36/35/31
f 23/37/17 28/40/21 37/38/32
f 28/40/21 33/61/27 38/41/33
f 40/43/34 39/62/41 41/44/35
f 42/45/35 41/44/35 43/46/36
f 44/47/36 43/46/36 45/48/37
f 46/49/37 45/48/37 47/50/38
o co_culling
v 0.000000 0.000000 0.000000
v 0.000000 0.000000 0.000000
v 0.000000 0.000000 0.000000
v 0.000000 0.000000 0.000000
v 0.000000 0.000000 0.000000
v 0.000000 0.000000 0.000000
v 0.000000 0.000000 0.000000
v 0.000000 0.000000 0.000000
vn 0.0000 0.0000 1.0000
usemtl None
s off
f 55//42 58//42 57//42
f 57//42 62//42 61//42
f 61//42 60//42 59//42
f 59//42 56//42 55//42
f 57//42 59//42 55//42
f 62//42 56//42 60//42
f 55//42 56//42 58//42
f 57//42 58//42 62//42
f 61//42 62//42 60//42
f 59//42 60//42 56//42
f 57//42 61//42 59//42
f 62//42 58//42 56//42
