# Blender v2.79 (sub 0) OBJ File: 'aucman_roof_trim_corner2.blend'
# www.blender.org
mtllib aucman_roof_trim_corner2.mtl
o c_c2
v -0.000001 -0.000001 0.000000
v 19.999996 -20.000004 69.999992
v -19.999998 20.000000 0.000000
v -19.999998 20.000000 69.999992
v -0.000012 -100.000000 0.000000
v 19.999992 -100.000000 69.999992
v -20.000004 -100.000000 0.000000
v -20.000004 -100.000000 69.999992
vn 0.7071 0.7071 -0.0000
vn -1.0000 0.0000 0.0000
vn 0.0000 -1.0000 0.0000
vn 0.9615 -0.0000 -0.2747
vn 0.0000 0.0000 -1.0000
vn -0.0000 0.0000 1.0000
usemtl None
s off
f 1//1 4//1 2//1
f 7//2 4//2 3//2
f 5//3 8//3 7//3
f 5//4 2//4 6//4
f 1//5 7//5 3//5
f 8//6 2//6 4//6
f 1//1 3//1 4//1
f 7//2 8//2 4//2
f 5//3 6//3 8//3
f 5//4 1//4 2//4
f 1//5 5//5 7//5
f 8//6 6//6 2//6
o c_c1
v 0.000001 0.000001 0.000000
v 20.000002 -19.999998 69.999992
v -19.999998 19.999998 0.000000
v -19.999998 19.999998 69.999992
v 100.000000 0.000001 0.000000
v 100.000000 -19.999998 69.999992
v 100.000000 19.999998 0.000000
v 100.000000 19.999998 69.999992
vn -0.7071 -0.7071 0.0000
vn 0.0000 1.0000 0.0000
vn 1.0000 0.0000 0.0000
vn 0.0000 -0.9615 -0.2747
vn 0.0000 0.0000 -1.0000
vn 0.0000 0.0000 1.0000
usemtl None
s off
f 9//7 12//7 11//7
f 12//8 15//8 11//8
f 16//9 13//9 15//9
f 13//10 10//10 9//10
f 15//11 9//11 11//11
f 16//12 10//12 14//12
f 9//7 10//7 12//7
f 12//8 16//8 15//8
f 16//9 14//9 13//9
f 13//10 14//10 10//10
f 15//11 13//11 9//11
f 16//12 12//12 10//12
o g_g
v 99.999619 -20.000458 68.000504
v 99.999619 -18.000412 62.000465
v 99.999046 20.000076 0.000572
v 99.999619 -0.000381 0.000477
v 99.999619 -0.000381 38.000393
v 99.999619 19.999695 70.000549
v 99.999619 -16.000175 60.000515
v 99.999619 -2.000427 40.000343
v 99.999619 -2.000427 60.000515
v 99.999619 -0.000381 38.000393
v 99.999619 -2.000427 40.000343
v 99.999428 -20.000458 70.000366
v 99.999619 -2.000427 60.000515
v 99.999428 -20.000458 70.000366
v 99.999619 19.999695 70.000549
v 64.999771 -16.000175 60.000992
v 34.999847 -16.000175 60.000515
v 34.999847 -16.000175 50.000477
v 64.999771 -16.000175 50.000477
v 34.999847 -12.529182 42.031193
v 64.999771 -12.529182 42.031193
v 34.999847 -5.815125 21.378899
v 64.999771 -5.815125 21.378899
v 34.999847 -4.817200 17.148495
v 64.999771 -4.817200 17.148495
v 34.999847 -3.172112 8.613300
v 64.999771 -3.172112 8.613300
v 34.999847 -2.000046 0.000477
v 64.999771 -2.000046 0.000477
v 34.999847 -0.000191 0.000477
v 64.999771 -0.000191 0.000477
v 64.999771 -0.000191 60.000992
v 34.999847 -0.000191 60.000992
v 64.999771 -16.000175 60.000992
v 34.999847 -16.000175 60.000515
v 34.999847 -16.000175 50.000477
v 64.999771 -16.000175 50.000477
v 34.999847 -12.529182 42.031193
v 64.999771 -12.529182 42.031193
v 34.999847 -5.815125 21.378899
v 64.999771 -5.815125 21.378899
v 34.999847 -4.817200 17.148495
v 64.999771 -4.817200 17.148495
v 34.999847 -3.172112 8.613300
v 64.999771 -3.172112 8.613300
v 34.999847 -2.000046 0.000477
v 64.999771 -2.000046 0.000477
v 77.499962 -9.000206 60.000515
v 77.499962 -2.000046 45.000458
v 77.499962 -9.000206 52.500439
v 77.499962 -9.000206 52.500439
v 72.500038 -2.000046 45.000458
v 72.500038 -9.000206 52.500534
v 77.499962 -2.000046 45.000458
v 72.500038 -9.000206 60.000515
v 77.499962 -9.000206 60.000515
v 77.499962 -9.000206 52.500439
v 72.500038 -9.000206 60.000515
v 72.500038 -9.000206 52.500534
v 72.500038 -9.000206 52.500534
v 72.500038 -2.000046 45.000458
v 77.499962 -2.000046 60.000515
v 72.500038 -2.000046 60.000515
v 27.499962 -9.000206 60.000515
v 27.499962 -2.000046 45.000458
v 27.499962 -9.000206 52.500439
v 27.499962 -9.000206 52.500439
v 22.500038 -2.000046 45.000458
v 22.500038 -9.000206 52.500534
v 27.499962 -2.000046 45.000458
v 22.500038 -9.000206 60.000515
v 27.499962 -9.000206 60.000515
v 27.499962 -9.000206 52.500439
v 22.500038 -9.000206 60.000515
v 22.500038 -9.000206 52.500534
v 22.500038 -9.000206 52.500534
v 22.500038 -2.000046 45.000458
v 27.499962 -2.000046 60.000515
v 22.500038 -2.000046 60.000515
v 15.999317 -34.999752 60.000992
v 15.999311 -64.999680 60.000515
v 15.999311 -64.999680 50.000477
v 15.999317 -34.999752 50.000477
v 12.528318 -64.999680 42.031193
v 12.528321 -34.999752 42.031193
v 5.814260 -64.999680 21.378899
v 5.814263 -34.999752 21.378899
v 4.816336 -64.999680 17.148495
v 4.816339 -34.999752 17.148495
v 3.171247 -64.999680 8.613300
v 3.171250 -34.999752 8.613300
v 1.999182 -64.999680 0.000477
v 1.999184 -34.999752 0.000477
v -0.000674 -64.999680 0.000477
v -0.000671 -34.999752 0.000477
v -0.000671 -34.999752 60.000992
v -0.000674 -64.999680 60.000992
v 15.999317 -34.999752 60.000992
v 15.999311 -64.999680 60.000515
v 15.999311 -64.999680 50.000477
v 15.999317 -34.999752 50.000477
v 12.528318 -64.999680 42.031193
v 12.528321 -34.999752 42.031193
v 5.814260 -64.999680 21.378899
v 5.814263 -34.999752 21.378899
v 4.816336 -64.999680 17.148495
v 4.816339 -34.999752 17.148495
v 3.171247 -64.999680 8.613300
v 3.171250 -34.999752 8.613300
v 1.999182 -64.999680 0.000477
v 1.999184 -34.999752 0.000477
v 8.999348 -22.499561 60.000515
v 1.999186 -22.499561 45.000458
v 8.999348 -22.499561 52.500439
v 8.999348 -22.499561 52.500439
v 1.999184 -27.499485 45.000458
v 8.999345 -27.499485 52.500534
v 1.999186 -22.499561 45.000458
v 8.999345 -27.499485 60.000515
v 8.999348 -22.499561 60.000515
v 8.999348 -22.499561 52.500439
v 8.999345 -27.499485 60.000515
v 8.999345 -27.499485 52.500534
v 8.999345 -27.499485 52.500534
v 1.999184 -27.499485 45.000458
v 1.999186 -22.499561 60.000515
v 1.999184 -27.499485 60.000515
v 8.999342 -72.499557 60.000515
v 1.999182 -72.499557 45.000458
v 8.999342 -72.499557 52.500439
v 8.999342 -72.499557 52.500439
v 1.999182 -77.499481 45.000458
v 8.999342 -77.499481 52.500534
v 1.999182 -72.499557 45.000458
v 8.999342 -77.499481 60.000515
v 8.999342 -72.499557 60.000515
v 8.999342 -72.499557 52.500439
v 8.999342 -77.499481 60.000515
v 8.999342 -77.499481 52.500534
v 8.999342 -77.499481 52.500534
v 1.999182 -77.499481 45.000458
v 1.999182 -72.499557 60.000515
v 1.999182 -77.499481 60.000515
v 19.999588 -100.000092 70.000366
v 19.999588 -99.999908 68.000504
v -20.000940 -100.000473 0.000572
v -20.000559 -99.999908 70.000549
v 1.999557 -99.999908 60.000515
v 1.999557 -99.999908 40.000343
v 17.999542 -99.999908 62.000465
v -20.000559 -99.999908 70.000549
v 19.999588 -100.000092 70.000366
v -0.000483 -99.999908 38.000393
v -0.000483 -99.999908 0.000477
v 15.999306 -99.999908 60.000515
v 1.999557 -99.999908 60.000515
v 1.999557 -99.999908 40.000343
v -0.000483 -99.999908 38.000393
v -19.999695 19.999695 70.000549
v 19.999596 -19.999599 70.000366
v -20.000549 20.000542 70.000549
v 20.000458 -20.000458 70.000366
v 2.634773 0.000454 0.000477
v -0.000474 -2.634774 0.000477
v -0.000474 0.000477 0.000477
v 22.557703 -19.999620 68.000504
v 19.999596 -22.557701 68.000504
v 19.999596 -19.999596 68.000504
v -0.089633 -2.633265 40.634018
v 2.633265 0.089615 40.634010
v -0.000474 0.000477 38.000393
v 20.000423 -22.558565 70.000366
v 22.558559 -20.000458 70.000366
v 20.000452 -20.000456 70.000366
v 1.985039 -4.514096 60.000515
v 4.514091 -1.999591 60.000515
v 1.999566 -1.999569 60.000515
v -17.500547 20.000523 70.000549
v -20.000549 17.500540 70.000549
v -20.000549 20.000542 70.000549
v 15.999312 -18.557413 60.000515
v 18.557417 -15.999332 60.000515
v 15.999311 -15.999306 60.000515
v 1.794324 -4.650968 39.795109
v 4.650934 -1.794332 39.795086
v 1.999566 -1.999569 40.000343
v -20.000931 17.500921 0.000572
v -17.500929 20.000904 0.000572
v -20.000931 20.000923 0.000572
v 17.999550 -20.557650 62.000465
v 20.557655 -17.999569 62.000465
v 17.999548 -17.999542 62.000465
vt 0.062500 0.164062
vt 0.175781 0.054688
vt 0.048828 0.148438
vt 0.123047 0.343750
vt 0.062500 0.000000
vt 0.123047 0.000000
vt 0.048828 0.343750
vt 0.025391 0.000000
vt 0.048828 0.000000
vt 0.146484 0.000000
vt 0.062500 0.343750
vt 0.175781 0.343750
vt 0.146484 0.343750
vt 0.025391 0.343750
vt 0.000000 0.000000
vt 0.062500 0.164062
vt 0.048828 0.148438
vt 0.175781 0.054688
vt 0.000000 1.000000
vt 0.148438 0.734375
vt 0.148438 1.000000
vt 0.179688 0.406250
vt 0.113281 0.000000
vt 0.179688 0.000000
vt 0.000000 0.000000
vt 0.113281 0.406250
vt 0.000000 0.406250
vt 0.179688 0.406250
vt 0.292969 0.000000
vt 0.292969 0.406250
vt 0.000000 1.000000
vt 0.148438 0.734375
vt 0.148438 1.000000
vt 0.179688 0.406250
vt 0.113281 0.000000
vt 0.179688 0.000000
vt 0.000000 0.000000
vt 0.113281 0.406250
vt 0.000000 0.406250
vt 0.179688 0.406250
vt 0.292969 0.000000
vt 0.292969 0.406250
vt 3.000895 0.144030
vt 2.000000 0.109375
vt 2.000000 0.000000
vt 0.738372 0.333532
vt 0.500000 0.570312
vt 0.500000 0.335938
vt 2.774424 0.671875
vt 2.000000 0.609375
vt 2.774422 0.609375
vt 1.000000 0.343750
vt 0.800003 0.000000
vt 1.000000 0.000000
vt 0.206247 0.000000
vt 0.500000 1.000000
vt 0.206249 1.000000
vt 2.794423 0.359375
vt 2.000000 0.234375
vt 2.814425 0.234375
vt 4.000000 0.000000
vt 3.046521 0.098150
vt 2.999117 0.144030
vt 4.000000 0.609375
vt 3.225591 0.671875
vt 3.225590 0.609375
vt 0.062500 0.164062
vt 0.175781 0.054688
vt 0.048828 0.148438
vt 0.123047 0.343750
vt 0.062500 0.000000
vt 0.123047 0.000000
vt 0.048828 0.343750
vt 0.025391 0.000000
vt 0.048828 0.000000
vt 0.146484 0.343750
vt 0.062500 0.343750
vt 0.146484 0.000000
vt 0.175781 0.343750
vt 0.025391 0.343750
vt 0.000000 0.000000
vt 0.062500 0.164062
vt 0.048828 0.148438
vt 0.175781 0.054688
vt 0.000000 1.000000
vt 0.148438 0.734375
vt 0.148438 1.000000
vt 0.179688 0.406250
vt 0.113281 0.000000
vt 0.179688 0.000000
vt 0.000000 0.000000
vt 0.113281 0.406250
vt 0.000000 0.406250
vt 0.179688 0.406250
vt 0.292969 0.000000
vt 0.292969 0.406250
vt 0.000000 1.000000
vt 0.148438 0.734375
vt 0.148438 1.000000
vt 0.179688 0.406250
vt 0.113281 0.000000
vt 0.179688 0.000000
vt 0.000000 0.000000
vt 0.113281 0.406250
vt 0.000000 0.406250
vt 0.179688 0.406250
vt 0.292969 0.000000
vt 0.292969 0.406250
vt 4.000000 0.359375
vt 4.000000 0.234375
vt 3.205589 0.359375
vt 3.185587 0.234375
vt 2.000000 1.000000
vt 1.513180 0.000000
vt 2.000000 0.000000
vt 1.000000 0.570312
vt 0.761630 0.333532
vt 1.000000 0.335938
vt 2.000000 0.359375
vt 2.110819 0.429688
vt 1.500000 0.015625
vt 2.216144 0.015195
vt 3.000000 0.015625
vt 2.389190 0.429688
vt 2.283865 0.015625
vt 0.700001 0.000000
vt 0.500000 0.343750
vt 0.500000 0.000000
vt 0.000000 0.000000
vt 0.293748 1.000000
vt 0.000000 1.000000
vt 3.200009 0.609375
vt 3.180008 0.359375
vt 2.800003 0.609375
vt 2.820004 0.359375
vt 3.160006 0.234375
vt 2.840006 0.234375
vt 1.486826 0.000000
vt 1.500003 1.000000
vt 1.486833 1.069306
vt 1.513173 1.069306
vt 2.370004 0.429688
vt 2.265006 0.015625
vt 2.130004 0.429687
vt 2.235003 0.015625
vt 0.199999 1.000000
vt 0.199997 0.000000
vt 0.299998 1.000000
vt 0.293748 0.000000
vt 0.299998 0.000000
vt 2.980003 0.109375
vt 3.000004 0.000000
vt 3.020008 0.109375
vt 0.738715 0.570312
vt 0.745001 0.335938
vt 0.745001 0.570312
vt 0.755002 0.335938
vt 0.761288 0.570312
vt 0.755002 0.570312
vt 2.800005 0.671875
vt 3.200010 0.671875
vt 1.000000 1.000000
vt 1.000000 0.000000
vt 0.123047 0.273438
vt 0.146484 0.343750
vt 0.175781 0.343750
vt 0.000000 0.054688
vt 0.000000 0.093750
vt 0.025391 0.117188
vt 0.175781 0.000000
vt 0.000000 0.343750
vt 0.000000 0.054688
vt 0.175781 0.343750
vt 0.146484 0.343750
vt 0.123047 0.273438
vt 0.025391 0.117188
vt 0.000000 0.093750
vt 0.000000 0.734375
vt 0.113281 0.406250
vt 0.113281 0.000000
vt 0.179688 0.000000
vt 0.000000 0.734375
vt 0.113281 0.406250
vt 0.113281 0.000000
vt 0.179688 0.000000
vt 2.953489 0.098151
vt 2.000000 0.671875
vt 0.700002 0.343750
vt 0.500000 0.000000
vt 4.000000 0.109375
vt 4.000000 0.671875
vt 0.123047 0.273438
vt 0.146484 0.343750
vt 0.175781 0.343750
vt 0.000000 0.054688
vt 0.000000 0.093750
vt 0.025391 0.117188
vt 0.175781 0.000000
vt 0.000000 0.343750
vt 0.000000 0.054688
vt 0.175781 0.343750
vt 0.146484 0.343750
vt 0.123047 0.273438
vt 0.025391 0.117188
vt 0.000000 0.093750
vt 0.000000 0.734375
vt 0.113281 0.406250
vt 0.113281 0.000000
vt 0.179688 0.000000
vt 0.000000 0.734375
vt 0.113281 0.406250
vt 0.113281 0.000000
vt 0.179688 0.000000
vt 1.500000 0.429688
vt 3.000000 0.429688
vt 0.800001 0.343750
vt 1.500003 0.000000
vt 2.982056 0.176263
vt 3.017956 0.176264
vn -1.0000 -0.0000 0.0000
vn 0.0000 -0.9350 -0.3547
vn 0.0000 -0.9630 -0.2696
vn 0.0000 -0.9778 -0.2095
vn 0.0000 -0.9868 -0.1621
vn 0.0000 -0.9790 -0.2039
vn 0.0000 -1.0000 0.0000
vn 0.0000 -0.9909 -0.1348
vn 1.0000 0.0000 0.0000
vn -0.0000 -0.7310 -0.6823
vn -0.0000 -0.7311 -0.6823
vn -0.7071 0.0000 0.7071
vn 0.7071 -0.0000 -0.7071
vn 0.9595 -0.0107 -0.2815
vn 1.0000 0.0019 -0.0013
vn 1.0000 0.0022 0.0000
vn 1.0000 -0.0000 -0.0004
vn 0.9871 -0.0000 -0.1602
vn 0.9871 -0.0000 -0.1604
vn 0.0000 -0.0000 1.0000
vn 0.8506 0.0000 -0.5258
vn 0.3827 -0.0000 -0.9239
vn -0.0000 -0.7071 -0.7071
vn 0.0000 0.7071 0.7071
vn -0.0000 -0.9871 -0.1602
vn -0.0000 -1.0000 -0.0004
vn -0.0000 -0.9871 -0.1604
vn 0.9350 -0.0000 -0.3547
vn 0.9630 -0.0000 -0.2696
vn 0.9778 -0.0000 -0.2095
vn 0.9868 -0.0000 -0.1621
vn 0.9790 -0.0000 -0.2039
vn 0.9909 -0.0000 -0.1348
vn 0.0000 1.0000 0.0000
vn 0.7310 -0.0000 -0.6823
vn 0.7311 -0.0000 -0.6823
vn -0.0000 -0.8506 -0.5258
vn -0.0000 -0.3827 -0.9239
vn -0.0002 -1.0000 0.0005
vn 0.0004 -1.0000 0.0009
vn -0.0019 -1.0000 -0.0014
vn 0.0107 -0.9593 -0.2822
vn -0.0022 -1.0000 0.0000
vn 0.0000 0.0000 -1.0000
vn 0.7060 -0.0041 -0.7082
vn 0.0023 -0.7052 -0.7090
vn 0.6859 -0.6859 -0.2433
vn 0.4994 -0.4994 -0.7079
vn 0.1100 -0.1100 -0.9878
vn 1.0000 -0.0004 0.0009
vn 0.6906 -0.6907 -0.2145
vn 0.7155 -0.2610 -0.6481
vn 0.2610 -0.7155 -0.6481
vn 0.5755 -0.5789 -0.5777
vn -0.7071 0.7071 0.0000
vn 0.4164 -0.4165 -0.8082
vn 0.7071 -0.7071 -0.0006
vn 1.0000 0.0002 0.0005
vn 0.7071 -0.7071 0.0000
usemtl mtl_mortar_trims
s 1
f 38/1/13 49/2/13 40/3/13
f 54/4/14 57/5/15 55/6/14
f 58/7/16 61/8/17 59/9/16
f 53/10/18 54/4/14 55/6/14
f 56/11/15 59/9/16 57/5/15
f 53/10/18 51/12/19 52/13/18
f 60/14/17 63/15/20 61/8/17
f 39/16/21 41/17/21 48/18/21
f 77/19/22 67/20/23 76/21/23
f 75/22/19 64/23/19 74/24/19
f 78/25/21 73/26/21 70/27/21
f 69/28/13 79/29/13 68/30/13
f 93/31/22 83/32/22 92/33/23
f 91/34/19 80/35/19 90/36/19
f 94/37/21 89/38/21 86/39/21
f 85/40/13 95/41/13 84/42/13
f 186/43/24 173/44/25 174/45/25
f 200/46/26 164/47/27 165/48/28
f 188/49/29 161/50/30 183/51/31
f 31/52/32 178/53/32 30/54/32
f 203/55/13 163/56/13 195/57/13
f 206/58/33 171/59/34 197/60/34
f 26/61/35 201/62/36 185/63/36
f 17/64/37 189/65/38 182/66/39
f 102/67/19 113/68/19 104/69/19
f 118/70/40 121/71/41 119/72/40
f 122/73/42 125/74/43 123/75/42
f 119/72/40 116/76/44 118/70/40
f 120/77/41 123/75/42 121/71/41
f 117/78/44 115/79/21 116/76/44
f 124/80/43 127/81/45 125/74/43
f 103/82/46 105/83/46 112/84/46
f 141/85/47 131/86/47 140/87/48
f 139/88/21 128/89/21 138/90/21
f 142/91/46 137/92/46 134/93/46
f 133/94/19 143/95/19 132/96/19
f 157/97/47 147/98/47 156/99/48
f 155/100/21 144/101/21 154/102/21
f 158/103/46 153/104/46 150/105/46
f 149/106/19 159/107/19 148/108/19
f 182/66/39 18/109/49 17/64/37
f 23/110/50 207/111/49 198/112/50
f 21/113/51 179/114/52 20/115/19
f 25/116/53 201/117/54 24/118/55
f 183/51/31 166/119/33 206/58/33
f 197/120/34 172/121/56 191/122/57
f 29/123/56 198/124/50 192/125/58
f 176/126/32 167/127/32 168/128/32
f 19/129/46 194/130/46 22/131/46
f 207/111/49 184/132/59 208/133/60
f 184/134/59 206/58/33 208/135/60
f 198/112/50 208/133/60 199/136/61
f 208/135/60 197/60/34 199/137/61
f 180/138/62 187/139/63 185/140/64
f 187/139/63 179/114/52 186/141/65
f 192/125/58 199/142/61 193/143/66
f 199/144/61 191/122/57 193/145/66
f 203/55/13 196/146/67 205/147/67
f 196/148/67 204/149/46 205/150/67
f 186/43/65 202/151/68 187/152/63
f 202/153/68 185/63/64 187/152/63
f 191/154/57 202/155/68 193/156/66
f 202/157/68 192/158/58 193/159/66
f 183/51/31 190/160/69 188/49/29
f 190/161/69 182/66/39 189/65/38
f 180/138/62 169/162/70 170/163/21
f 36/164/13 34/165/13 49/2/13
f 33/166/13 49/2/13 34/165/13
f 46/167/13 44/168/13 42/169/13
f 46/167/13 42/169/13 40/3/13
f 38/1/13 36/164/13 49/2/13
f 46/167/13 40/3/13 49/2/13
f 54/4/14 56/11/15 57/5/15
f 58/7/16 60/14/17 61/8/17
f 53/10/18 52/13/18 54/4/14
f 56/11/15 58/7/16 59/9/16
f 53/10/18 50/170/19 51/12/19
f 60/14/17 62/171/20 63/15/20
f 47/172/21 48/18/21 41/17/21
f 32/173/21 35/174/21 48/18/21
f 35/174/21 37/175/21 48/18/21
f 43/176/21 45/177/21 47/172/21
f 41/17/21 43/176/21 47/172/21
f 48/18/21 37/175/21 39/16/21
f 77/19/22 65/178/22 67/20/23
f 75/22/19 66/179/19 64/23/19
f 78/25/21 72/180/21 73/26/21
f 69/28/13 71/181/13 79/29/13
f 93/31/22 81/182/22 83/32/22
f 91/34/19 82/183/19 80/35/19
f 94/37/21 88/184/21 89/38/21
f 85/40/13 87/185/13 95/41/13
f 186/43/24 200/186/24 173/44/25
f 200/46/26 191/154/57 164/47/27
f 188/49/29 160/187/21 161/50/30
f 31/52/32 175/188/32 178/53/32
f 203/55/13 162/189/13 163/56/13
f 206/58/33 166/119/33 171/59/34
f 26/61/35 27/190/35 201/62/36
f 17/64/37 28/191/19 189/65/38
f 100/192/19 98/193/19 113/68/19
f 97/194/19 113/68/19 98/193/19
f 110/195/19 108/196/19 106/197/19
f 110/195/19 106/197/19 104/69/19
f 102/67/19 100/192/19 113/68/19
f 110/195/19 104/69/19 113/68/19
f 118/70/40 120/77/41 121/71/41
f 122/73/42 124/80/43 125/74/43
f 119/72/40 117/78/44 116/76/44
f 120/77/41 122/73/42 123/75/42
f 117/78/44 114/198/21 115/79/21
f 124/80/43 126/199/45 127/81/45
f 111/200/46 112/84/46 105/83/46
f 96/201/46 99/202/46 112/84/46
f 99/202/46 101/203/46 112/84/46
f 107/204/46 109/205/46 111/200/46
f 105/83/46 107/204/46 111/200/46
f 112/84/46 101/203/46 103/82/46
f 141/85/47 129/206/47 131/86/47
f 139/88/21 130/207/21 128/89/21
f 142/91/46 136/208/46 137/92/46
f 133/94/19 135/209/19 143/95/19
f 157/97/47 145/210/47 147/98/47
f 155/100/21 146/211/21 144/101/21
f 158/103/46 152/212/46 153/104/46
f 149/106/19 151/213/19 159/107/19
f 182/66/39 207/111/49 18/109/49
f 23/110/50 18/109/49 207/111/49
f 21/113/51 186/141/65 179/114/52
f 25/116/53 192/158/58 201/117/54
f 183/51/31 161/50/30 166/119/33
f 197/120/34 171/214/34 172/121/56
f 29/123/56 23/215/50 198/124/50
f 176/126/32 177/216/32 167/127/32
f 19/129/46 204/149/46 194/130/46
f 207/111/49 182/66/39 184/132/59
f 184/134/59 183/51/31 206/58/33
f 198/112/50 207/111/49 208/133/60
f 208/135/60 206/58/33 197/60/34
f 180/138/62 181/217/71 187/139/63
f 187/139/63 181/217/71 179/114/52
f 192/125/58 198/124/50 199/142/61
f 199/144/61 197/120/34 191/122/57
f 203/55/13 195/57/13 196/146/67
f 196/148/67 194/130/46 204/149/46
f 186/43/65 201/218/54 202/151/68
f 202/153/68 200/219/26 185/63/64
f 191/154/57 200/46/26 202/155/68
f 202/157/68 201/117/54 192/158/58
f 183/51/31 184/134/59 190/160/69
f 190/161/69 184/132/59 182/66/39
f 180/138/62 185/140/64 169/162/70
o co_culling
v 0.000000 0.000000 0.000000
v 0.000000 0.000000 0.000000
v 0.000000 0.000000 0.000000
v 0.000000 0.000000 0.000000
v 0.000000 0.000000 0.000000
v 0.000000 0.000000 0.000000
v 0.000000 0.000000 0.000000
v 0.000000 0.000000 0.000000
vn 0.0000 0.0000 1.0000
usemtl None
s off
f 209//72 212//72 211//72
f 211//72 216//72 215//72
f 215//72 214//72 213//72
f 213//72 210//72 209//72
f 211//72 213//72 209//72
f 216//72 210//72 214//72
f 209//72 210//72 212//72
f 211//72 212//72 216//72
f 215//72 216//72 214//72
f 213//72 214//72 210//72
f 211//72 215//72 213//72
f 216//72 212//72 210//72
