# Blender v2.79 (sub 0) OBJ File: 'aucman_roof_trim_1m.blend'
# www.blender.org
mtllib aucman_roof_trim_1m.mtl
o c_c
v -100.000000 -0.000001 0.000000
v -100.000000 -20.000002 70.000000
v -100.000000 19.999998 0.000000
v -100.000000 19.999998 70.000000
v 0.000000 -0.000001 0.000000
v 0.000000 -20.000002 70.000000
v 0.000000 19.999998 0.000000
v 0.000000 19.999998 70.000000
vn -1.0000 0.0000 0.0000
vn 0.0000 1.0000 0.0000
vn 1.0000 0.0000 0.0000
vn 0.0000 -0.9615 -0.2747
vn 0.0000 0.0000 -1.0000
vn 0.0000 0.0000 1.0000
usemtl None
s off
f 1//1 4//1 3//1
f 4//2 7//2 3//2
f 8//3 5//3 7//3
f 6//4 1//4 5//4
f 7//5 1//5 3//5
f 4//6 6//6 8//6
f 1//1 2//1 4//1
f 4//2 8//2 7//2
f 8//3 6//3 5//3
f 6//4 2//4 1//4
f 7//5 5//5 1//5
f 4//6 2//6 6//6
o g_g
v -0.000381 -20.000458 68.000504
v -0.000381 -18.000412 62.000465
v -0.000954 20.000076 0.000572
v -0.000381 -0.000381 0.000477
v -0.000381 -0.000381 38.000393
v -0.000381 19.999695 70.000549
v -0.000381 -16.000175 60.000515
v -0.000381 -2.000427 40.000343
v -0.000381 -2.000427 60.000515
v -0.000381 -0.000381 38.000393
v -0.000381 -2.000427 40.000343
v -0.000572 -20.000458 70.000366
v -0.000381 -2.000427 60.000515
v -0.000572 -20.000458 70.000366
v -0.000381 19.999695 70.000549
v -35.000229 -16.000175 60.000992
v -65.000153 -16.000175 60.000515
v -65.000153 -16.000175 50.000477
v -35.000229 -16.000175 50.000477
v -65.000153 -12.529182 42.031193
v -35.000229 -12.529182 42.031193
v -65.000153 -5.815125 21.378899
v -35.000229 -5.815125 21.378899
v -65.000153 -4.817200 17.148495
v -35.000229 -4.817200 17.148495
v -65.000153 -3.172112 8.613300
v -35.000229 -3.172112 8.613300
v -65.000153 -2.000046 0.000477
v -35.000229 -2.000046 0.000477
v -65.000153 -0.000191 0.000477
v -35.000229 -0.000191 0.000477
v -35.000229 -0.000191 60.000992
v -65.000153 -0.000191 60.000992
v -35.000229 -16.000175 60.000992
v -65.000153 -16.000175 60.000515
v -65.000153 -16.000175 50.000477
v -35.000229 -16.000175 50.000477
v -65.000153 -12.529182 42.031193
v -35.000229 -12.529182 42.031193
v -65.000153 -5.815125 21.378899
v -35.000229 -5.815125 21.378899
v -65.000153 -4.817200 17.148495
v -35.000229 -4.817200 17.148495
v -65.000153 -3.172112 8.613300
v -35.000229 -3.172112 8.613300
v -65.000153 -2.000046 0.000477
v -35.000229 -2.000046 0.000477
v -22.500038 -9.000206 60.000515
v -22.500038 -2.000046 45.000458
v -22.500038 -9.000206 52.500439
v -22.500038 -9.000206 52.500439
v -27.499962 -2.000046 45.000458
v -27.499962 -9.000206 52.500534
v -22.500038 -2.000046 45.000458
v -27.499962 -9.000206 60.000515
v -22.500038 -9.000206 60.000515
v -22.500038 -9.000206 52.500439
v -27.499962 -9.000206 60.000515
v -27.499962 -9.000206 52.500534
v -27.499962 -9.000206 52.500534
v -27.499962 -2.000046 45.000458
v -22.500038 -2.000046 60.000515
v -27.499962 -2.000046 60.000515
v -72.500038 -9.000206 60.000515
v -72.500038 -2.000046 45.000458
v -72.500038 -9.000206 52.500439
v -72.500038 -9.000206 52.500439
v -77.499962 -2.000046 45.000458
v -77.499962 -9.000206 52.500534
v -72.500038 -2.000046 45.000458
v -77.499962 -9.000206 60.000515
v -72.500038 -9.000206 60.000515
v -72.500038 -9.000206 52.500439
v -77.499962 -9.000206 60.000515
v -77.499962 -9.000206 52.500534
v -77.499962 -9.000206 52.500534
v -77.499962 -2.000046 45.000458
v -72.500038 -2.000046 60.000515
v -77.499962 -2.000046 60.000515
v -100.000381 -20.000458 68.000504
v -100.000381 19.999695 70.000549
v -100.000381 -2.000427 40.000343
v -100.000381 -18.000412 62.000465
v -100.000572 -20.000458 70.000366
v -100.000381 -0.000381 0.000477
v -100.000381 -2.000427 60.000515
v -100.000381 -0.000381 38.000393
v -100.000572 -20.000458 70.000366
v -100.000954 20.000076 0.000572
v -100.000381 -2.000427 60.000515
v -100.000381 19.999695 70.000549
v -100.000381 -0.000381 38.000393
v -100.000381 -16.000175 60.000515
v -100.000381 -2.000427 40.000343
vt 0.062500 0.164062
vt 0.175781 0.054688
vt 0.048828 0.148438
vt 0.123047 0.343750
vt 0.062500 0.000000
vt 0.123047 0.000000
vt 0.048828 0.343750
vt 0.025391 0.000000
vt 0.048828 0.000000
vt 0.146484 0.000000
vt 0.062500 0.343750
vt 0.175781 0.343750
vt 0.146484 0.343750
vt 0.025391 0.343750
vt 0.000000 0.000000
vt 0.062500 0.164062
vt 0.048828 0.148438
vt 0.175781 0.054688
vt 0.000000 1.000000
vt 0.148438 0.734375
vt 0.148438 1.000000
vt 0.179688 0.406250
vt 0.113281 0.000000
vt 0.179688 0.000000
vt 0.000000 0.000000
vt 0.113281 0.406250
vt 0.000000 0.406250
vt 0.179688 0.406250
vt 0.292969 0.000000
vt 0.292969 0.406250
vt 0.000000 1.000000
vt 0.148438 0.734375
vt 0.148438 1.000000
vt 0.179688 0.406250
vt 0.113281 0.000000
vt 0.179688 0.000000
vt 0.000000 0.000000
vt 0.113281 0.406250
vt 0.000000 0.406250
vt 0.179688 0.406250
vt 0.292969 0.000000
vt 0.292969 0.406250
vt 3.000000 0.609375
vt 4.000000 0.359375
vt 4.000000 0.609375
vt 4.000000 0.671875
vt 0.000000 0.000000
vt 0.250000 1.000000
vt -0.000000 1.000000
vt 1.000000 0.570312
vt 0.750000 0.335938
vt 1.000000 0.335938
vt 1.000000 0.000000
vt 0.750000 0.343750
vt 0.750000 0.000000
vt 2.000000 1.000000
vt 1.500000 0.000000
vt 2.000000 0.000000
vt 3.000000 0.429688
vt 2.250000 0.015625
vt 3.000000 0.015625
vt 4.000000 0.109375
vt 3.000000 0.000000
vt 4.000000 0.000000
vt 3.000000 0.234375
vt 4.000000 0.234375
vt 0.123047 0.273438
vt 0.146484 0.343750
vt 0.175781 0.343750
vt 0.000000 0.054688
vt 0.000000 0.093750
vt 0.025391 0.117188
vt 0.175781 0.000000
vt 0.000000 0.343750
vt 0.000000 0.054688
vt 0.175781 0.343750
vt 0.146484 0.343750
vt 0.123047 0.273438
vt 0.025391 0.117188
vt 0.000000 0.093750
vt 0.000000 0.734375
vt 0.113281 0.406250
vt 0.113281 0.000000
vt 0.179688 0.000000
vt 0.000000 0.734375
vt 0.113281 0.406250
vt 0.113281 0.000000
vt 0.179688 0.000000
vt 3.000000 0.359375
vt 3.000000 0.671875
vt 0.250000 0.000000
vt 0.750000 0.570312
vt 1.000000 0.343750
vt 1.500000 1.000000
vt 2.250000 0.429688
vt 3.000000 0.109375
vn -1.0000 -0.0000 0.0000
vn 0.0000 -0.9350 -0.3547
vn 0.0000 -0.9630 -0.2696
vn 0.0000 -0.9778 -0.2095
vn 0.0000 -0.9868 -0.1621
vn 0.0000 -0.9790 -0.2039
vn 0.0000 -1.0000 0.0000
vn 0.0000 -0.9909 -0.1348
vn 1.0000 0.0000 0.0000
vn -0.0000 -0.7310 -0.6823
vn -0.0000 -0.7311 -0.6823
vn 0.0000 -0.9871 -0.1602
vn 0.0000 -0.8506 -0.5258
vn 0.0000 1.0000 0.0000
vn 0.0000 -0.0000 1.0000
vn 0.0000 -0.3827 -0.9239
vn 0.0000 0.0000 -1.0000
vn 0.0000 -0.7071 -0.7071
usemtl mtl_mortar_trims
s 1
f 30/1/7 41/2/7 32/3/7
f 46/4/8 49/5/9 47/6/8
f 50/7/10 53/8/11 51/9/10
f 45/10/12 46/4/8 47/6/8
f 48/11/9 51/9/10 49/5/9
f 45/10/12 43/12/13 44/13/12
f 52/14/11 55/15/14 53/8/11
f 31/16/15 33/17/15 40/18/15
f 69/19/16 59/20/16 68/21/17
f 67/22/13 56/23/13 66/24/13
f 70/25/15 65/26/15 62/27/15
f 61/28/7 71/29/7 60/30/7
f 85/31/16 75/32/16 84/33/17
f 83/34/13 72/35/13 82/36/13
f 86/37/15 81/38/15 78/39/15
f 77/40/7 87/41/7 76/42/7
f 88/43/18 10/44/19 9/45/18
f 20/46/13 88/43/18 9/45/18
f 11/47/20 89/48/20 14/49/20
f 17/50/13 90/51/13 16/52/13
f 22/53/21 99/54/21 92/55/21
f 13/56/13 93/57/13 12/58/13
f 15/59/22 94/60/23 21/61/23
f 19/62/24 95/63/24 18/64/24
f 10/44/19 101/65/22 15/66/22
f 28/67/7 26/68/7 41/2/7
f 25/69/7 41/2/7 26/68/7
f 38/70/7 36/71/7 34/72/7
f 38/70/7 34/72/7 32/3/7
f 30/1/7 28/67/7 41/2/7
f 38/70/7 32/3/7 41/2/7
f 46/4/8 48/11/9 49/5/9
f 50/7/10 52/14/11 53/8/11
f 45/10/12 44/13/12 46/4/8
f 48/11/9 50/7/10 51/9/10
f 45/10/12 42/73/13 43/12/13
f 52/14/11 54/74/14 55/15/14
f 39/75/15 40/18/15 33/17/15
f 24/76/15 27/77/15 40/18/15
f 27/77/15 29/78/15 40/18/15
f 35/79/15 37/80/15 39/75/15
f 33/17/15 35/79/15 39/75/15
f 40/18/15 29/78/15 31/16/15
f 69/19/16 57/81/16 59/20/16
f 67/22/13 58/82/13 56/23/13
f 70/25/15 64/83/15 65/26/15
f 61/28/7 63/84/7 71/29/7
f 85/31/16 73/85/16 75/32/16
f 83/34/13 74/86/13 72/35/13
f 86/37/15 80/87/15 81/38/15
f 77/40/7 79/88/7 87/41/7
f 88/43/18 91/89/19 10/44/19
f 20/46/13 96/90/13 88/43/18
f 11/47/20 97/91/20 89/48/20
f 17/50/13 98/92/13 90/51/13
f 22/53/21 23/93/21 99/54/21
f 13/56/13 100/94/13 93/57/13
f 15/59/22 101/95/22 94/60/23
f 19/62/24 102/96/24 95/63/24
f 10/44/19 91/89/19 101/65/22
o co_culling
v 0.000000 0.000000 0.000000
v 0.000000 0.000000 0.000000
v 0.000000 0.000000 0.000000
v 0.000000 0.000000 0.000000
v 0.000000 0.000000 0.000000
v 0.000000 0.000000 0.000000
v 0.000000 0.000000 0.000000
v 0.000000 0.000000 0.000000
vn 0.0000 0.0000 1.0000
usemtl None
s off
f 103//25 106//25 105//25
f 105//25 110//25 109//25
f 109//25 108//25 107//25
f 107//25 104//25 103//25
f 105//25 107//25 103//25
f 110//25 104//25 108//25
f 103//25 104//25 106//25
f 105//25 106//25 110//25
f 109//25 110//25 108//25
f 107//25 108//25 104//25
f 105//25 109//25 107//25
f 110//25 106//25 104//25
